<?xml version="1.0" encoding="UTF-8" standalone="no"?>
<svg width="919px" height="994px" viewBox="0 0 919 994" version="1.1" xmlns="http://www.w3.org/2000/svg" xmlns:xlink="http://www.w3.org/1999/xlink" xmlns:sketch="http://www.bohemiancoding.com/sketch/ns">
    <!-- Generator: Sketch 3.4.2 (15857) - http://www.bohemiancoding.com/sketch -->
    <title>Group</title>
    <desc>Created with Sketch.</desc>
    <defs></defs>
    <g id="Final-Logo" stroke="none" stroke-width="1" fill="none" fill-rule="evenodd" sketch:type="MSPage">
        <g id="Group" sketch:type="MSLayerGroup">
            <path d="M37,7.99336414 C37,3.57875102 40.5909902,-7.10542736e-15 44.99079,-7.10542736e-15 L870.384695,-7.10542736e-15 C874.797886,-7.10542736e-15 878.375485,3.58666172 878.375485,8.0014786 L878.375485,876.431676 C878.375485,880.85077 874.788509,884.428936 870.380095,884.423751 L310.862725,883.765722 L319.855326,932.477438 L150.375986,932.821692 L150.021197,993.056955 L44.9924613,993.034838 C40.5783468,993.033908 37,989.449724 37,985.03979 L37,7.99336414 Z" id="New-Mexico" stroke="#C53A0C" stroke-width="30" fill="#FED600" sketch:type="MSShapeGroup"></path>
            <g id="Header" transform="translate(67.000000, 25.000000)" sketch:type="MSShapeGroup">
                <path d="M0.0160933177,185.092773 L0.0160933177,1.03417969 L103.566895,1.03417969 L784.991093,1.03417969 L784.962871,46.0533447 L782.547343,66.9404297 L0.0160933177,185.092773 Z" id="Header-Background" fill="#00D4C7"></path>
                <g id="Stripes" transform="translate(51.000000, 0.000000)" fill="#80E9E3">
                    <path d="M1.55431223e-15,1.06015673 L1.55431223e-15,180.210547 L61.8515625,170.185156 L61.8515625,1 L1.55431223e-15,1.06015673 Z" id="Stripe-1"></path>
                    <path d="M125,1.07343739 L125,163.5 L186.851562,153.286312 L186.851562,1.0734374 L125,1.07343739 Z" id="Stripe-2"></path>
                    <path d="M248,0.99375 L248,143.558203 L309.851562,133.532813 L312.258942,0.99375 L248,0.99375 Z" id="Stripe-3"></path>
                    <path d="M375,0.934179688 L375,122.032813 L436.851562,112.007422 L436.851562,0.934179688 L375,0.934179688 Z" id="Stripe-4"></path>
                    <path d="M500,0.900000012 L500,103.816797 L561.851562,93.7914064 L561.851562,1.04179688 L500,0.900000012 Z" id="Stripe-5"></path>
                    <path d="M623,1.00000003 L623,84.3203126 L684.851562,74.294922 L684.851562,1.06328125 L623,1.00000003 Z" id="Stripe-6"></path>
                </g>
            </g>
            <g id="Sash" transform="translate(0.000000, 63.000000)" sketch:type="MSShapeGroup">
                <path d="M8.62349117,134.249453 L909.58482,0.110323904 C914.40205,-0.658640662 918.307187,2.67349494 918.307187,7.56971211 L918.307175,291.775304 C918.307175,296.663975 914.402431,301.250332 909.579138,302.020264 L12.0213049,435.616103 C7.20094314,436.385567 3.24882522,433.060931 3.19381304,428.173496 L0.000578759349,144.477633 C-0.0543486313,139.59773 3.80734272,135.018245 8.62349117,134.249453 Z" fill="#C53A0C"></path>
                <path d="M204.53125,370.216305 L204.53125,325.98193 L170.464844,331.42719 L170.464844,375.661565 L141,380.3713 L141,271.863487 L170.464844,267.153752 L170.464844,307.380315 L204.53125,301.935055 L204.53125,261.708492 L233.996094,256.998757 L233.996094,365.50657 L204.53125,370.216305 Z M375.546875,330.115111 C366.591101,341.046672 353.479253,347.892456 336.210937,350.652667 C319.190019,353.373333 306.140019,350.684586 297.060547,342.586345 C287.981074,334.488104 283.441406,321.310229 283.441406,303.052325 C283.441406,284.992339 287.956335,270.478482 296.986328,259.510318 C306.016321,248.542154 319.140539,241.682023 336.359375,238.929721 C353.627691,236.16951 366.714799,238.802847 375.621094,246.829811 C384.527388,254.856774 388.980469,268.02375 388.980469,286.331133 C388.980469,304.589037 384.502649,319.18355 375.546875,330.115111 Z M336.210937,326.234698 C343.63285,325.048361 349.137352,321.620356 352.724609,315.95058 C356.311867,310.280804 358.105469,302.052783 358.105469,291.266271 C358.105469,280.430279 356.287128,272.717752 352.650391,268.128459 C349.013654,263.539165 343.583369,261.821895 336.359375,262.976596 C321.663989,265.325544 314.316406,277.088436 314.316406,298.265625 C314.316406,319.244897 321.61451,328.567828 336.210937,326.234698 Z M530.828125,274.864878 C530.828125,289.065469 526.807983,300.704694 518.767578,309.7829 C510.727173,318.861106 499.136794,324.610187 483.996094,327.030315 C469.201749,329.39508 457.834024,327.427008 449.892578,321.126038 C441.951132,314.825068 437.980469,304.574441 437.980469,290.37385 L437.980469,224.393381 L467.445312,219.683646 L467.445312,283.363334 C467.445312,291.032643 468.880194,296.369638 471.75,299.37448 C474.619806,302.379322 478.850232,303.434874 484.441406,302.541166 C490.428415,301.584188 494.770169,299.170807 497.466797,295.300952 C500.163425,291.431097 501.511719,285.587383 501.511719,277.769636 L501.511719,214.238386 L530.828125,209.552378 L530.828125,274.864878 Z M649.445312,284.070823 C646.031233,289.836616 641.108105,294.680793 634.675781,298.603497 C628.243457,302.526202 620.69796,305.179544 612.039062,306.563604 C604.815068,307.718306 598.753931,308.179977 593.855469,307.948631 C588.957007,307.717286 583.860704,306.763029 578.566406,305.085833 L578.566406,278.960833 C584.15758,280.936932 589.971324,282.246558 596.007812,282.889751 C602.044301,283.532945 607.585912,283.451188 612.632812,282.644479 C616.987001,281.948495 620.178375,280.683827 622.207031,278.85044 C624.235687,277.017052 625.25,274.912884 625.25,272.537872 C625.25,271.05349 624.841801,269.819922 624.025391,268.837132 C623.20898,267.854343 621.897795,266.938286 620.091797,266.088935 C618.285798,265.239584 613.473997,263.683216 605.65625,261.419787 C598.580694,259.334599 593.274106,257.065661 589.736328,254.612904 C586.19855,252.160148 583.57618,249.115807 581.869141,245.479791 C580.162101,241.843774 579.308594,237.353945 579.308594,232.010169 C579.308594,222.015327 582.945276,213.64114 590.21875,206.887355 C597.492224,200.133571 607.486916,195.74045 620.203125,193.707859 C631.434952,191.912535 642.889265,192.679279 654.566406,196.008114 L645.585937,220.080293 C635.442658,217.050556 626.684933,216.124915 619.3125,217.303343 C615.502585,217.91233 612.731779,219.023184 611,220.635941 C609.268221,222.248697 608.402344,224.044636 608.402344,226.023813 C608.402344,228.151428 609.503244,229.880386 611.705078,231.210739 C613.906912,232.541093 619.881462,234.653783 629.628906,237.548874 C638.980516,240.25984 645.474591,243.736739 649.111328,247.979677 C652.748065,252.222614 654.566406,258.005473 654.566406,265.328426 C654.566406,272.057627 652.859392,278.30503 649.445312,284.070823 Z M701.339844,290.805167 L701.339844,182.297355 L765.761719,172 L765.761719,195.527344 L730.65625,201.13869 L730.65625,218.209003 L763.164062,213.012872 L763.164062,236.540216 L730.65625,241.736347 L730.65625,262.220722 L765.761719,256.609375 L765.761719,280.507812 L701.339844,290.805167 Z" id="HOUSE---shadow" fill="#9D300B"></path>
                <path d="M214.53125,368.216305 L214.53125,323.98193 L180.464844,329.42719 L180.464844,373.661565 L151,378.3713 L151,269.863487 L180.464844,265.153752 L180.464844,305.380315 L214.53125,299.935055 L214.53125,259.708492 L243.996094,254.998757 L243.996094,363.50657 L214.53125,368.216305 Z M385.546875,328.115111 C376.591101,339.046672 363.479253,345.892456 346.210937,348.652667 C329.190019,351.373333 316.140019,348.684586 307.060547,340.586345 C297.981074,332.488104 293.441406,319.310229 293.441406,301.052325 C293.441406,282.992339 297.956335,268.478482 306.986328,257.510318 C316.016321,246.542154 329.140539,239.682023 346.359375,236.929721 C363.627691,234.16951 376.714799,236.802847 385.621094,244.829811 C394.527388,252.856774 398.980469,266.02375 398.980469,284.331133 C398.980469,302.589037 394.502649,317.18355 385.546875,328.115111 Z M346.210937,324.234698 C353.63285,323.048361 359.137352,319.620356 362.724609,313.95058 C366.311867,308.280804 368.105469,300.052783 368.105469,289.266271 C368.105469,278.430279 366.287128,270.717752 362.650391,266.128459 C359.013654,261.539165 353.583369,259.821895 346.359375,260.976596 C331.663989,263.325544 324.316406,275.088436 324.316406,296.265625 C324.316406,317.244897 331.61451,326.567828 346.210937,324.234698 Z M540.828125,272.864878 C540.828125,287.065469 536.807983,298.704694 528.767578,307.7829 C520.727173,316.861106 509.136794,322.610187 493.996094,325.030315 C479.201749,327.39508 467.834024,325.427008 459.892578,319.126038 C451.951132,312.825068 447.980469,302.574441 447.980469,288.37385 L447.980469,222.393381 L477.445312,217.683646 L477.445312,281.363334 C477.445312,289.032643 478.880194,294.369638 481.75,297.37448 C484.619806,300.379322 488.850232,301.434874 494.441406,300.541166 C500.428415,299.584188 504.770169,297.170807 507.466797,293.300952 C510.163425,289.431097 511.511719,283.587383 511.511719,275.769636 L511.511719,212.238386 L540.828125,207.552378 L540.828125,272.864878 Z M659.445312,282.070823 C656.031233,287.836616 651.108105,292.680793 644.675781,296.603497 C638.243457,300.526202 630.69796,303.179544 622.039062,304.563604 C614.815068,305.718306 608.753931,306.179977 603.855469,305.948631 C598.957007,305.717286 593.860704,304.763029 588.566406,303.085833 L588.566406,276.960833 C594.15758,278.936932 599.971324,280.246558 606.007812,280.889751 C612.044301,281.532945 617.585912,281.451188 622.632812,280.644479 C626.987001,279.948495 630.178375,278.683827 632.207031,276.85044 C634.235687,275.017052 635.25,272.912884 635.25,270.537872 C635.25,269.05349 634.841801,267.819922 634.025391,266.837132 C633.20898,265.854343 631.897795,264.938286 630.091797,264.088935 C628.285798,263.239584 623.473997,261.683216 615.65625,259.419787 C608.580694,257.334599 603.274106,255.065661 599.736328,252.612904 C596.19855,250.160148 593.57618,247.115807 591.869141,243.479791 C590.162101,239.843774 589.308594,235.353945 589.308594,230.010169 C589.308594,220.015327 592.945276,211.64114 600.21875,204.887355 C607.492224,198.133571 617.486916,193.74045 630.203125,191.707859 C641.434952,189.912535 652.889265,190.679279 664.566406,194.008114 L655.585937,218.080293 C645.442658,215.050556 636.684933,214.124915 629.3125,215.303343 C625.502585,215.91233 622.731779,217.023184 621,218.635941 C619.268221,220.248697 618.402344,222.044636 618.402344,224.023813 C618.402344,226.151428 619.503244,227.880386 621.705078,229.210739 C623.906912,230.541093 629.881462,232.653783 639.628906,235.548874 C648.980516,238.25984 655.474591,241.736739 659.111328,245.979677 C662.748065,250.222614 664.566406,256.005473 664.566406,263.328426 C664.566406,270.057627 662.859392,276.30503 659.445312,282.070823 Z M711.339844,288.805167 L711.339844,180.297355 L775.761719,170 L775.761719,193.527344 L740.65625,199.13869 L740.65625,216.209003 L773.164062,211.012872 L773.164062,234.540216 L740.65625,239.736347 L740.65625,260.220722 L775.761719,254.609375 L775.761719,278.507812 L711.339844,288.805167 Z" id="HOUSE" fill="#FFFFFF"></path>
                <path d="M156.431641,238.265525 L156.431641,182.650291 L139,185.436608 L139,169.665124 L193.101563,161.017394 L193.101563,176.788878 L175.71875,179.567391 L175.71875,235.182625 L156.431641,238.265525 Z M208.306641,158.586976 L227.691406,155.488466 L227.691406,226.875185 L208.306641,229.973694 L208.306641,158.586976 Z M290.796875,216.788247 L264.722656,170.663047 L264.283203,170.733291 C264.901696,178.544625 265.210938,184.533546 265.210938,188.700234 L265.210938,220.877968 L248.121094,223.609652 L248.121094,152.222933 L273.316406,148.195651 L299.292969,193.652867 L299.585938,193.606038 C299.130206,186.484837 298.902344,180.743322 298.902344,176.381321 L298.902344,144.10593 L316.089844,141.358637 L316.089844,212.745356 L290.796875,216.788247 Z M374.3125,132.052181 L395.210938,128.711722 L371.724609,175.971695 L371.724609,203.852554 L352.291016,206.958869 L352.291016,179.663947 L328.804688,139.326264 L349.800781,135.970196 L362.007813,160.483837 L374.3125,132.052181 Z M462.222656,189.387119 L455.386719,159.376276 C455.061196,158.126219 454.548506,155.620304 453.848633,151.858456 C453.14876,148.096608 452.636069,144.939658 452.310547,142.387511 C452.050129,144.545033 451.626956,147.241228 451.041016,150.476178 C450.455075,153.711128 449.877281,156.692452 449.307617,159.420241 C448.737953,162.148029 446.369813,173.203536 442.203125,192.587091 L419.400391,196.231937 L401.724609,127.67056 L420.328125,124.696927 L428.091797,159.246978 C429.849618,166.876199 431.054033,172.982448 431.705078,177.565906 C432.128257,174.177935 432.885086,169.548543 433.975586,163.677592 C435.066086,157.806641 436.083329,152.924037 437.027344,149.029635 L443.326172,121.020862 L461.197266,118.164301 L467.300781,144.190653 C468.342453,148.353598 469.400385,153.18119 470.474609,158.673574 C471.548833,164.165959 472.264972,168.283218 472.623047,171.025475 C473.046226,167.344534 474.201813,160.893608 476.089844,151.672506 L484,114.519454 L502.603516,111.545822 L485.025391,185.742272 L462.222656,189.387119 Z M558.628906,173.977301 L558.628906,144.875738 L536.216797,148.458146 L536.216797,177.559709 L516.832031,180.658219 L516.832031,109.2715 L536.216797,106.17299 L536.216797,132.637834 L558.628906,129.055426 L558.628906,102.590582 L578.013672,99.4920722 L578.013672,170.878791 L558.628906,173.977301 Z M598.443359,167.613258 L598.443359,96.2265394 L640.826172,89.4519639 L640.826172,104.93048 L617.730469,108.622155 L617.730469,119.852624 L639.117188,116.434117 L639.117188,131.912632 L617.730469,135.331139 L617.730469,148.807702 L640.826172,145.116026 L640.826172,160.838683 L598.443359,167.613258 Z M658.326172,158.041439 L658.326172,86.6547198 L700.708984,79.8801443 L700.708984,95.3586599 L677.613281,99.0503353 L677.613281,110.280804 L699,106.862297 L699,122.340813 L677.613281,125.75932 L677.613281,139.235882 L700.708984,135.544207 L700.708984,151.266863 L658.326172,158.041439 Z M718.208984,77.0829002 L737.496094,74 L737.496094,129.810547 L764.986328,125.416439 L764.986328,140.99261 L718.208984,148.469619 L718.208984,77.0829002 Z" id="TINYWHEEL---shadow" fill="#9D300B"></path>
                <path d="M166.431641,236.265525 L166.431641,180.650291 L149,183.436608 L149,167.665124 L203.101563,159.017394 L203.101563,174.788878 L185.71875,177.567391 L185.71875,233.182625 L166.431641,236.265525 Z M218.306641,156.586976 L237.691406,153.488466 L237.691406,224.875185 L218.306641,227.973694 L218.306641,156.586976 Z M300.796875,214.788247 L274.722656,168.663047 L274.283203,168.733291 C274.901696,176.544625 275.210938,182.533546 275.210938,186.700234 L275.210938,218.877968 L258.121094,221.609652 L258.121094,150.222933 L283.316406,146.195651 L309.292969,191.652867 L309.585938,191.606038 C309.130206,184.484837 308.902344,178.743322 308.902344,174.381321 L308.902344,142.10593 L326.089844,139.358637 L326.089844,210.745356 L300.796875,214.788247 Z M384.3125,130.052181 L405.210938,126.711722 L381.724609,173.971695 L381.724609,201.852554 L362.291016,204.958869 L362.291016,177.663947 L338.804688,137.326264 L359.800781,133.970196 L372.007813,158.483837 L384.3125,130.052181 Z M472.222656,187.387119 L465.386719,157.376276 C465.061196,156.126219 464.548506,153.620304 463.848633,149.858456 C463.14876,146.096608 462.636069,142.939658 462.310547,140.387511 C462.050129,142.545033 461.626956,145.241228 461.041016,148.476178 C460.455075,151.711128 459.877281,154.692452 459.307617,157.420241 C458.737953,160.148029 456.369813,171.203536 452.203125,190.587091 L429.400391,194.231937 L411.724609,125.67056 L430.328125,122.696927 L438.091797,157.246978 C439.849618,164.876199 441.054033,170.982448 441.705078,175.565906 C442.128257,172.177935 442.885086,167.548543 443.975586,161.677592 C445.066086,155.806641 446.083329,150.924037 447.027344,147.029635 L453.326172,119.020862 L471.197266,116.164301 L477.300781,142.190653 C478.342453,146.353598 479.400385,151.18119 480.474609,156.673574 C481.548833,162.165959 482.264972,166.283218 482.623047,169.025475 C483.046226,165.344534 484.201813,158.893608 486.089844,149.672506 L494,112.519454 L512.603516,109.545822 L495.025391,183.742272 L472.222656,187.387119 Z M568.628906,171.977301 L568.628906,142.875738 L546.216797,146.458146 L546.216797,175.559709 L526.832031,178.658219 L526.832031,107.2715 L546.216797,104.17299 L546.216797,130.637834 L568.628906,127.055426 L568.628906,100.590582 L588.013672,97.4920722 L588.013672,168.878791 L568.628906,171.977301 Z M608.443359,165.613258 L608.443359,94.2265394 L650.826172,87.4519639 L650.826172,102.93048 L627.730469,106.622155 L627.730469,117.852624 L649.117188,114.434117 L649.117188,129.912632 L627.730469,133.331139 L627.730469,146.807702 L650.826172,143.116026 L650.826172,158.838683 L608.443359,165.613258 Z M668.326172,156.041439 L668.326172,84.6547198 L710.708984,77.8801443 L710.708984,93.3586599 L687.613281,97.0503353 L687.613281,108.280804 L709,104.862297 L709,120.340813 L687.613281,123.75932 L687.613281,137.235882 L710.708984,133.544207 L710.708984,149.266863 L668.326172,156.041439 Z M728.208984,75.0829002 L747.496094,72 L747.496094,127.810547 L774.986328,123.416439 L774.986328,138.99261 L728.208984,146.469619 L728.208984,75.0829002 Z" id="TINYWHEEL" fill="#FFFFFF"></path>
            </g>
            <g id="RV" transform="translate(123.000000, 437.000000)" fill="#C53A0C" sketch:type="MSShapeGroup">
                <path d="M489.888396,66.9873803 C489.888396,66.9873803 471.210735,65.8521062 461.648812,66.016221 C452.623234,66.1711304 435.057999,67.9179569 435.057999,67.9179569 C433.416727,68.0750444 432.110018,69.5437817 432.1395,71.2051002 L431,85.1578736 L492.966233,84.905265 L492.933297,70.1616734 C492.903868,68.5033219 491.541405,67.0807031 489.888396,66.9873803 Z" id="AC-Rear"></path>
                <path d="M216.562308,73.5576866 C216.562308,73.5576866 197.867678,72.7485555 188.310077,73.0795239 C179.288577,73.3919278 161.756503,75.4450438 161.756503,75.4450438 C160.118222,75.6307516 158.837345,77.1220704 158.895817,78.7826213 L158,92.7531567 L219.952387,91.4191267 L219.662145,76.6783554 C219.603777,75.02077 218.216694,73.6221462 216.562308,73.5576866 L216.562308,73.5576866 Z" id="AC-Front"></path>
                <path d="M603.143113,59.7353008 C616.8014,56.2515677 630.691232,65.2305286 633.058547,84.891079 C637.576431,119.97843 644.152683,209.155368 639.992173,271.921562 L639.737462,275.764181 L635.957165,276.498995 L623.254516,278.968139 L623.645201,268.705028 L634.049078,266.682723 L630.01407,271.260155 C634.134982,209.091342 627.555774,120.459126 623.135341,86.1273187 C621.427357,71.943925 613.021797,68.5660653 605.805431,70.4066982 C598.633145,72.2360879 595.872813,77.3623912 596.004214,84.8903124 L586.005737,85.0648369 C585.791581,72.7959701 591.574406,62.6860581 603.143113,59.7353008 Z" id="Ladder"></path>
                <path d="M398.984992,365.838636 C414.265287,363.144308 424.465355,348.556692 421.76748,333.256284 C419.069605,317.955876 404.495419,307.73663 389.215123,310.430958 C373.934828,313.125286 363.734761,327.712902 366.432635,343.01331 C369.13051,358.313718 383.704697,368.532965 398.984992,365.838636 L398.984992,365.838636 Z" id="Rear-Tire" transform="translate(394.100058, 338.134797) scale(-1, 1) rotate(11.000000) translate(-394.100058, -338.134797) "></path>
                <path d="M126.585294,371.258223 C111.071639,371.529015 98.2755268,359.155679 98.0043785,343.621604 C97.7332302,328.087529 110.089724,315.275153 125.603379,315.004361 C141.117035,314.733569 153.913146,327.106905 154.184295,342.64098 C154.455443,358.175055 142.098949,370.987431 126.585294,371.258223 L126.585294,371.258223 Z" id="Front-Tire"></path>
                <path d="M38.0849797,177.60879 C39.0422926,201.805465 43.7497625,211.288756 43.7497625,211.288756 L44.5744172,136 C44.5744172,136 37.1276668,153.412114 38.0849797,177.60879 L38.0849797,177.60879 L38.0849797,177.60879 Z" id="Windshield"></path>
                <path d="M623.53689,271.933637 C618.997945,276.703506 579.795456,288.403558 579.795456,288.403558 C579.795456,288.403558 573.98445,257.113792 536.27909,263.762269 C498.57373,270.410747 504.814704,302.685285 504.814704,302.685285 L318.085287,336.223527 C318.085287,336.223527 312.325654,303.251298 273.180094,309.069175 C234.034534,314.887053 239.840089,348.860869 239.840089,348.860869 C239.840089,348.860869 64.5994257,361.068623 58.5186347,354.914251 C56.8364542,353.211715 53.0335085,337.881264 48.552268,316.34889 C50.1754733,316.045073 51.2886459,315.836797 52.5665044,315.597789 C56.2176385,314.914886 60.4559711,314.12271 65.233804,313.230367 C78.8849287,310.680783 94.1216929,307.839804 110.562507,304.780284 C157.536074,296.038831 204.746992,287.297395 249.142314,279.138835 C251.12525,278.774429 253.099129,278.411821 255.063773,278.051045 C313.37479,267.343138 361.947118,258.541774 397.527388,252.268013 C418.340767,248.598052 446.198669,243.889921 479.503248,238.388348 C481.959366,237.982623 484.440932,237.573278 486.947043,237.160451 C515.467291,232.462364 546.025883,227.499759 576.584641,222.58463 C587.280336,220.864314 597.212013,219.272822 606.124954,217.849144 C609.244384,217.350872 612.013619,216.909174 614.400822,216.528923 C615.236279,216.395845 615.964289,216.279956 616.580872,216.181866 C622.437583,244.563492 625.860326,269.491993 623.53689,271.933637 Z M615.880265,206.16884 C611.700286,182.015301 607.616796,160.789857 607.616796,160.789857 C607.616796,160.789857 579.044562,165.581823 578.900191,165.055298 C572.215116,140.674724 563.345431,101.024027 564.406949,82.8600393 L586.698149,78.7326765 C586.698149,78.7326765 575.318566,51.1506627 550.900005,55.4563139 C526.481443,59.7619651 31.5236717,139.486687 24.8935628,151.026673 C20.3131974,158.998994 34.2619929,245.463564 45.8013517,302.620813 C47.5591936,302.291792 48.6726768,302.083459 49.9508485,301.844391 C53.6026581,301.161363 57.8416765,300.369058 62.6202081,299.476585 C76.2729821,296.926692 91.511445,294.085397 107.954036,291.025546 C154.933056,282.283079 202.149632,273.540595 246.551508,265.38083 C248.534788,265.016362 250.509013,264.65369 252.474004,264.29285 C310.802042,253.581818 359.3906,244.777513 394.993348,238.499788 C415.840674,234.823841 443.723919,230.111427 477.054547,224.605551 C479.511859,224.199629 481.994606,223.790089 484.501888,223.377069 C513.033258,218.67715 543.601401,213.712994 574.169379,208.796382 C584.868042,207.075589 594.802553,205.483642 603.718243,204.059525 C606.838834,203.561068 609.609209,203.119188 611.997533,202.738758 C612.83351,202.605598 613.562035,202.489627 614.179129,202.391455 C614.800318,202.292657 615.880265,206.16884 615.880265,206.16884 Z" id="RV-Body" transform="translate(324.135789, 205.824021) scale(-1, 1) rotate(11.000000) translate(-324.135789, -205.824021) "></path>
            </g>
            <path d="M5.89648438,498.04541 C5.05183937,497.032964 3.96484375,494.713379 3.96484375,494.713379 C3.96484375,494.713379 6.07226562,498.665039 10.1303711,498.665039 C13.8564453,497.946777 37.3203125,494.074219 37.3203125,494.074219 L37.3203125,533.969727 C37.3203125,533.969727 15.7302248,509.832768 5.89648438,498.04541 Z" id="Rectangle-185" fill="#8A2403" sketch:type="MSShapeGroup"></path>
            <path d="M877.970199,369.778809 C877.970199,369.778809 897.367503,366.899902 909.208985,365.130371 C914.896483,363.85498 915.484112,361.07974 916.700194,360.202149 C918.600097,359.475586 877.970199,401.725757 877.970199,401.725757 L877.970199,369.778809 Z" id="Rectangle-187" fill="#8A2403" sketch:type="MSShapeGroup"></path>
            <path d="M36.0000074,495.070312 L878.271492,369.623047 L878.271492,391.237305 L37,514.231533 L36.0000074,495.070312 Z" id="Rectangle-186" opacity="0.8" fill="#AA320B" sketch:type="MSShapeGroup"></path>
        </g>
    </g>
</svg>