<?xml version="1.0" encoding="UTF-8" standalone="no"?>
<svg width="1437px" height="892px" viewBox="0 0 1437 892" version="1.1" xmlns="http://www.w3.org/2000/svg" xmlns:xlink="http://www.w3.org/1999/xlink" xmlns:sketch="http://www.bohemiancoding.com/sketch/ns">
    <!-- Generator: Sketch 3.4.2 (15857) - http://www.bohemiancoding.com/sketch -->
    <title>Oval 11 + Oval 11</title>
    <desc>Created with Sketch.</desc>
    <defs></defs>
    <g id="Website" stroke="none" stroke-width="1" fill="none" fill-rule="evenodd" sketch:type="MSPage">
        <g id="Desktop-HD" sketch:type="MSArtboardGroup" transform="translate(0.000000, -68.000000)" stroke="#FFFFFF" stroke-width="6" opacity="0.4" stroke-dasharray="9">
            <g id="Oval-11-+-Oval-11" sketch:type="MSLayerGroup" transform="translate(0.000000, -93.000000)">
                <path d="M749.448395,226.562212 C685.374481,172.7978 677.034668,251.705352 666.463684,275.694791 C655.8927,299.684231 629.436554,337.275103 595.137161,275.694788 C560.837769,214.114474 468.153501,275.694791 411.916932,302.704024 C355.680364,329.713257 378.061801,372.165982 349.16803,409.979062 C320.274259,447.792142 275.729535,468.025967 226.185605,401.518369 C176.641675,335.01077 104.055953,375.803494 60.2177311,418.057187 C16.3795091,460.31088 23.4946774,605.021534 23.4946774,605.021534" id="Oval-11" sketch:type="MSShapeGroup" transform="translate(386.257886, 406.599541) rotate(50.000000) translate(-386.257886, -406.599541) "></path>
                <path d="M1606.22392,693.04621 C1606.22395,769.18802 1528.07903,706.198657 1481.73491,721.741345 C1435.39079,737.284034 1463.62025,864.899672 1386.14726,820.75817 C1308.67427,776.616668 1287.60131,777.239717 1231.36474,804.24895 C1175.12817,831.258183 1242.31038,891.767463 1213.41661,929.580542 C1184.52284,967.393622 1095.17734,969.570894 1045.63341,903.063295 C996.08948,836.555696 927.79298,913.955359 883.954758,956.209052 C840.116536,998.462745 703.945907,929.580542 703.945907,929.580542" id="Oval-11" sketch:type="MSShapeGroup" transform="translate(1155.084915, 831.483972) scale(1, -1) rotate(-195.000000) translate(-1155.084915, -831.483972) "></path>
            </g>
        </g>
    </g>
</svg>