<?xml version="1.0" encoding="UTF-8" standalone="no"?>
<svg width="31px" height="27px" viewBox="0 0 31 27" version="1.1" xmlns="http://www.w3.org/2000/svg" xmlns:xlink="http://www.w3.org/1999/xlink" xmlns:sketch="http://www.bohemiancoding.com/sketch/ns">
    <!-- Generator: Sketch 3.3.3 (12081) - http://www.bohemiancoding.com/sketch -->
    <title>“</title>
    <desc>Created with Sketch.</desc>
    <defs></defs>
    <g id="Website" stroke="none" stroke-width="1" fill="none" fill-rule="evenodd" sketch:type="MSPage">
        <g id="Home" sketch:type="MSArtboardGroup" transform="translate(-217.000000, -427.000000)" fill="#00D4C7">
            <path d="M234.16,444.512 C234.16,440.863982 235.11999,437.660014 237.04,434.9 C238.96001,432.139986 241.623983,429.77601 245.032,427.808 C245.176001,427.712 245.415998,427.795999 245.752,428.06 C246.088002,428.324001 246.327999,428.551999 246.472,428.744 C246.616001,428.936001 246.771999,429.235998 246.94,429.644 C247.108001,430.052002 247.120001,430.28 246.976,430.328 C245.583993,431.192004 244.240006,432.379992 242.944,433.892 C241.647994,435.404008 241,437.11999 241,439.04 C241,439.616003 241.036,440.023999 241.108,440.264 C241.18,440.504001 241.311999,440.624 241.504,440.624 C241.648001,440.624 241.803999,440.588 241.972,440.516 C242.140001,440.444 242.343999,440.408 242.584,440.408 C243.976007,440.408 245.199995,440.899995 246.256,441.884 C247.312005,442.868005 247.84,444.415989 247.84,446.528 C247.84,448.304009 247.228006,449.923993 246.004,451.388 C244.779994,452.852007 243.20801,453.584 241.288,453.584 C239.127989,453.584 237.400006,452.720009 236.104,450.992 C234.807994,449.263991 234.16,447.104013 234.16,444.512 Z M217.528,444.512 C217.528,440.863982 218.48799,437.660014 220.408,434.9 C222.32801,432.139986 224.991983,429.77601 228.4,427.808 C228.544001,427.712 228.783998,427.795999 229.12,428.06 C229.456002,428.324001 229.695999,428.551999 229.84,428.744 C229.984001,428.936001 230.139999,429.235998 230.308,429.644 C230.476001,430.052002 230.488001,430.28 230.344,430.328 C228.951993,431.192004 227.608006,432.379992 226.312,433.892 C225.015994,435.404008 224.368,437.11999 224.368,439.04 C224.368,439.616003 224.404,440.023999 224.476,440.264 C224.548,440.504001 224.679999,440.624 224.872,440.624 C225.016001,440.624 225.171999,440.588 225.34,440.516 C225.508001,440.444 225.711999,440.408 225.952,440.408 C227.344007,440.408 228.567995,440.899995 229.624,441.884 C230.680005,442.868005 231.208,444.415989 231.208,446.528 C231.208,448.304009 230.596006,449.923993 229.372,451.388 C228.147994,452.852007 226.57601,453.584 224.656,453.584 C222.495989,453.584 220.768006,452.720009 219.472,450.992 C218.175994,449.263991 217.528,447.104013 217.528,444.512 Z" id="“" sketch:type="MSShapeGroup"></path>
        </g>
    </g>
</svg>